<svg xmlns="http://www.w3.org/2000/svg" viewBox="0 0 300 300"><defs><style>.a{isolation:isolate;}.b,.g{fill:#a8afb4;}.c{fill:#6a757d;}.d{fill:#818a92;}.e{opacity:0.04;}.e,.g{mix-blend-mode:multiply;}.f{fill:#5b6670;}.g{opacity:0.1;}.h{fill:#fff;}.i{fill:#b9bec3;}</style></defs><title>ICONOS SVG</title><g class="a"><path class="b" d="M149.84,129h0V80.62h83.9C217,48.26,185.79,32.2,150,32.2a96.68,96.68,0,0,0-83.8,48.48L108,153.22Z"/><path class="c" d="M149.88,80.62V129h0l42,24.2L150,225.83h0A96.83,96.83,0,0,0,246.81,129c0-17.65-4.79-32.48-13-48.4Z"/><path class="d" d="M149.88,129h0L108,153.22,66.18,80.68A96.72,96.72,0,0,0,150,225.83l41.86-72.61Z"/><g class="e"><path class="f" d="M150,32.47a96.16,96.16,0,1,1-37.58,7.58A96,96,0,0,1,150,32.47m0-.27A96.82,96.82,0,1,0,246.82,129,96.82,96.82,0,0,0,150,32.2Z"/></g><polygon class="g" points="66.18 80.68 127.46 142.03 108.08 153.22 66.18 80.68"/><polygon class="g" points="150.1 225.85 172.56 142.04 191.94 153.23 150.1 225.85"/><polygon class="g" points="233.82 80.52 150.01 102.98 150.01 80.6 233.82 80.52"/><circle class="h" cx="150.01" cy="129.02" r="48.41"/><circle class="i" cx="150.01" cy="129.02" r="35.5"/><path class="f" d="M36.83,261.28v-.06a10.34,10.34,0,0,1,10.47-10.5,11,11,0,0,1,6.93,2.06,1.8,1.8,0,0,1,.73,1.45A1.78,1.78,0,0,1,53.19,256a1.9,1.9,0,0,1-1.1-.41,7.72,7.72,0,0,0-4.93-1.6c-3.74,0-6.59,3.28-6.59,7.17v.06c0,4.17,2.76,7.25,6.91,7.25a8.29,8.29,0,0,0,4.9-1.54v-3.8h-4a1.56,1.56,0,0,1-1.6-1.54,1.58,1.58,0,0,1,1.6-1.56H54a1.77,1.77,0,0,1,1.8,1.8v5.42a2.46,2.46,0,0,1-1.25,2.26,12.91,12.91,0,0,1-7.22,2.21A10.08,10.08,0,0,1,36.83,261.28Z"/><path class="f" d="M59.22,263.8v-.06a8.17,8.17,0,0,1,16.33-.06v.06a8,8,0,0,1-8.21,8A7.92,7.92,0,0,1,59.22,263.8Zm12.82,0v-.06a4.73,4.73,0,0,0-4.7-4.93,4.59,4.59,0,0,0-4.61,4.87v.06a4.72,4.72,0,0,0,4.67,4.9A4.59,4.59,0,0,0,72,263.8Z"/><path class="f" d="M78.27,263.8v-.06a8.17,8.17,0,0,1,16.33-.06v.06a8,8,0,0,1-8.21,8A7.92,7.92,0,0,1,78.27,263.8Zm12.82,0v-.06a4.73,4.73,0,0,0-4.7-4.93,4.59,4.59,0,0,0-4.61,4.87v.06a4.72,4.72,0,0,0,4.67,4.9A4.59,4.59,0,0,0,91.09,263.8Z"/><path class="f" d="M99.06,274.71a1.46,1.46,0,0,1-1-1.4,1.48,1.48,0,0,1,1.48-1.45,1.37,1.37,0,0,1,.64.15,9.39,9.39,0,0,0,4.7,1.22c3.13,0,4.84-1.63,4.84-4.7v-1.19a6.43,6.43,0,0,1-5.4,2.81,6.88,6.88,0,0,1-7-7.16v-.06a6.91,6.91,0,0,1,7-7.2,6.59,6.59,0,0,1,5.37,2.62v-.73a1.76,1.76,0,0,1,3.51,0v10.59a7.86,7.86,0,0,1-1.94,5.77c-1.4,1.39-3.54,2.06-6.3,2.06A13.4,13.4,0,0,1,99.06,274.71ZM109.77,263v-.06a4.28,4.28,0,0,0-4.5-4.21,4.15,4.15,0,0,0-4.35,4.21V263a4.17,4.17,0,0,0,4.35,4.2A4.28,4.28,0,0,0,109.77,263Z"/><path class="f" d="M117.83,251.79a1.72,1.72,0,0,1,1.74-1.74,1.75,1.75,0,0,1,1.77,1.74v18a1.76,1.76,0,0,1-3.51,0Z"/><path class="f" d="M132.94,271.72a7.64,7.64,0,0,1-7.86-8v-.06c0-4.38,3.1-8,7.48-8,4.87,0,7.28,4,7.28,7.55a1.64,1.64,0,0,1-1.65,1.68h-9.6a4.27,4.27,0,0,0,4.41,3.89,5.49,5.49,0,0,0,3.62-1.34,1.33,1.33,0,0,1,.9-.32,1.38,1.38,0,0,1,1.39,1.42,1.54,1.54,0,0,1-.46,1.08A7.89,7.89,0,0,1,132.94,271.72Zm3.48-9.08c-.23-2.26-1.57-4-3.89-4-2.14,0-3.65,1.65-4,4Z"/><path class="f" d="M151.64,261.28v-.06a10.27,10.27,0,0,1,10.47-10.5,10.61,10.61,0,0,1,7,2.29,1.77,1.77,0,0,1,.7,1.42,1.73,1.73,0,0,1-1.77,1.74,1.7,1.7,0,0,1-1.07-.35,7.39,7.39,0,0,0-4.85-1.83c-3.86,0-6.7,3.2-6.7,7.17v.06c0,4,2.82,7.19,6.7,7.19a7.31,7.31,0,0,0,5.08-1.94,1.64,1.64,0,0,1,1.07-.41,1.67,1.67,0,0,1,1.1,2.93,10.37,10.37,0,0,1-7.36,2.73A10.21,10.21,0,0,1,151.64,261.28Z"/><path class="f" d="M173.53,251.79a1.76,1.76,0,0,1,3.51,0v6.61a5.57,5.57,0,0,1,4.79-2.67c3.45,0,5.45,2.33,5.45,5.86v8.18a1.7,1.7,0,0,1-1.74,1.74,1.74,1.74,0,0,1-1.77-1.74v-7.1c0-2.38-1.18-3.74-3.27-3.74s-3.46,1.42-3.46,3.8v7a1.76,1.76,0,0,1-3.51,0Z"/><path class="f" d="M191.51,257.65a1.74,1.74,0,0,1,1.75-1.77,1.76,1.76,0,0,1,1.77,1.77v1.57c.81-1.92,2.32-3.37,3.85-3.37a1.73,1.73,0,0,1,.35,3.42c-2.49.44-4.2,2.35-4.2,6v4.52a1.75,1.75,0,0,1-1.77,1.74,1.73,1.73,0,0,1-1.75-1.74Z"/><path class="f" d="M202.13,263.8v-.06a8.17,8.17,0,0,1,16.33-.06v.06a8,8,0,0,1-8.21,8A7.92,7.92,0,0,1,202.13,263.8Zm12.82,0v-.06a4.73,4.73,0,0,0-4.7-4.93,4.59,4.59,0,0,0-4.61,4.87v.06a4.72,4.72,0,0,0,4.67,4.9A4.59,4.59,0,0,0,215,263.8Z"/><path class="f" d="M222,257.65a1.74,1.74,0,0,1,1.74-1.77,1.75,1.75,0,0,1,1.77,1.77v.72a5.5,5.5,0,0,1,4.67-2.64,4.88,4.88,0,0,1,4.59,2.7,6.16,6.16,0,0,1,5.16-2.7c3.34,0,5.37,2.12,5.37,5.86v8.18a1.71,1.71,0,0,1-1.74,1.74,1.73,1.73,0,0,1-1.77-1.74v-7.1c0-2.44-1.14-3.74-3.11-3.74s-3.28,1.33-3.28,3.8v7a1.76,1.76,0,0,1-3.51,0v-7.13c0-2.38-1.16-3.71-3.1-3.71s-3.28,1.45-3.28,3.8v7a1.76,1.76,0,0,1-3.51,0Z"/><path class="f" d="M256.59,271.72a7.64,7.64,0,0,1-7.86-8v-.06c0-4.38,3.11-8,7.48-8,4.88,0,7.29,4,7.29,7.55a1.65,1.65,0,0,1-1.66,1.68h-9.6a4.29,4.29,0,0,0,4.41,3.89,5.54,5.54,0,0,0,3.63-1.34,1.31,1.31,0,0,1,.9-.32,1.38,1.38,0,0,1,1.39,1.42,1.51,1.51,0,0,1-.47,1.08A7.89,7.89,0,0,1,256.59,271.72Zm3.48-9.08c-.23-2.26-1.56-4-3.88-4-2.15,0-3.66,1.65-4,4Z"/></g></svg>