<svg id="Capa_1" data-name="Capa 1" xmlns="http://www.w3.org/2000/svg" viewBox="0 0 703.84 219.72"><defs><style>.cls-1{fill:#5b6670;}.cls-2{fill:#9d1d64;}</style></defs><title>logo-sbs</title><path class="cls-1" d="M318.32,215.34a13.65,13.65,0,0,1,8.09-24.75,13.55,13.55,0,0,1,8.57,2.62c13.81,10.95,28.57,17.13,46.66,17.13s29.51-8.56,29.51-20.94v-.48c0-11.9-6.66-18.33-37.61-25.47-35.46-8.57-55.46-19-55.46-49.75v-.47c0-28.57,23.81-48.32,56.89-48.32,20.95,0,37.85,5.47,52.84,15.47A13.2,13.2,0,0,1,434.24,92a13.62,13.62,0,0,1-13.81,13.57,14.13,14.13,0,0,1-7.61-2.14C400,95.14,387.59,90.85,374.5,90.85c-17.14,0-27.14,8.81-27.14,19.76v.48c0,12.85,7.62,18.56,39.75,26.18,35.23,8.57,53.32,21.18,53.32,48.8v.47c0,31.18-24.52,49.75-59.51,49.75A103.72,103.72,0,0,1,318.32,215.34Z" transform="translate(-44.08 -41.14)"/><path class="cls-1" d="M625.81,215.34a13.65,13.65,0,0,1,8.1-24.75,13.54,13.54,0,0,1,8.56,2.62c13.81,10.95,28.57,17.13,46.66,17.13s29.51-8.56,29.51-20.94v-.48c0-11.9-6.66-18.33-37.6-25.47-35.47-8.57-55.47-19-55.47-49.75v-.47c0-28.57,23.81-48.32,56.89-48.32,20.95,0,37.85,5.47,52.85,15.47A13.21,13.21,0,0,1,741.73,92a13.61,13.61,0,0,1-13.8,13.57,14.14,14.14,0,0,1-7.62-2.14C707.46,95.14,695.08,90.85,682,90.85c-17.14,0-27.14,8.81-27.14,19.76v.48c0,12.85,7.62,18.56,39.75,26.18,35.23,8.57,53.32,21.18,53.32,48.8v.47c0,31.18-24.51,49.75-59.51,49.75A103.72,103.72,0,0,1,625.81,215.34Z" transform="translate(-44.08 -41.14)"/><path class="cls-1" d="M459.08,80.07a15,15,0,0,1,15.18-15.19H536c19.58,0,35,5.39,44.81,15.19,7.59,7.59,11.5,16.89,11.5,28.4V109c0,20.57-11.75,31.59-24.48,38.2,20.08,6.86,34,18.36,34,41.63v.49c0,30.6-25.23,47-63.42,47H474.26a15,15,0,0,1-15.18-15.18Zm70.76,57.05c19.35,0,32.33-7.59,32.33-23.26v-.49c0-13.47-10.78-21.79-30.12-21.79H488.71v45.54Zm8.82,72.48c20.57,0,33.06-8.08,33.06-23.51v-.49c0-14.44-11.51-23-35.26-23H488.71v47Z" transform="translate(-44.08 -41.14)"/><path class="cls-2" d="M239.45,53.58A12.44,12.44,0,0,1,227,66H129.58a60.62,60.62,0,0,0,0,121.23h48.71a11.91,11.91,0,0,0,0-23.81H129.58a36.8,36.8,0,0,1,0-73.6h48.71a85.51,85.51,0,1,1,0,171H80.88a12.45,12.45,0,1,1,0-24.89h97.41a60.62,60.62,0,1,0,0-121.23H129.58a11.91,11.91,0,0,0,0,23.81h48.71a36.8,36.8,0,1,1,0,73.6H129.58a85.51,85.51,0,1,1,0-171H227a12.44,12.44,0,0,1,12.44,12.44" transform="translate(-44.08 -41.14)"/></svg>