<svg xmlns="http://www.w3.org/2000/svg" viewBox="0 0 300 300"><defs><style>.a{fill:#5b6670;}.b{fill:#707a83;}</style></defs><title>ICONOS SVG</title><path class="a" d="M42,252.75A1.78,1.78,0,0,1,43.8,251h.38a1.87,1.87,0,0,1,1.66,1L52,261.54l6.18-9.66a1.8,1.8,0,0,1,1.63-.93h.37a1.79,1.79,0,0,1,1.8,1.8v17a1.76,1.76,0,0,1-1.8,1.76,1.79,1.79,0,0,1-1.76-1.76V257.56l-5,7.46a1.66,1.66,0,0,1-3,0l-4.93-7.4v12.15a1.74,1.74,0,0,1-1.77,1.74A1.7,1.7,0,0,1,42,269.77Z"/><path class="a" d="M66.71,251.94a2,2,0,0,1,4,0v.17a2,2,0,0,1-4,0Zm.26,5.71a1.76,1.76,0,1,1,3.51,0v12.12a1.76,1.76,0,0,1-3.51,0Z"/><path class="a" d="M74.22,263.8v-.06a7.91,7.91,0,0,1,8-8,7.77,7.77,0,0,1,5.37,1.92,1.67,1.67,0,0,1,.55,1.22,1.6,1.6,0,0,1-1.63,1.59,1.74,1.74,0,0,1-1-.35,4.89,4.89,0,0,0-3.28-1.3,4.62,4.62,0,0,0-4.44,4.87v.06a4.63,4.63,0,0,0,4.59,4.9,5.12,5.12,0,0,0,3.42-1.36,1.48,1.48,0,0,1,2.47,1.16,1.37,1.37,0,0,1-.5,1.1,7.46,7.46,0,0,1-5.57,2.18A7.82,7.82,0,0,1,74.22,263.8Z"/><path class="a" d="M91.62,257.65a1.76,1.76,0,1,1,3.51,0v1.57c.82-1.92,2.33-3.37,3.86-3.37a1.73,1.73,0,0,1,.35,3.42c-2.49.44-4.21,2.35-4.21,6v4.52a1.76,1.76,0,0,1-3.51,0Z"/><path class="a" d="M102.24,263.8v-.06a8.17,8.17,0,0,1,16.33-.06v.06a8,8,0,0,1-8.21,8A7.92,7.92,0,0,1,102.24,263.8Zm12.82,0v-.06a4.73,4.73,0,0,0-4.7-4.93,4.59,4.59,0,0,0-4.61,4.87v.06a4.72,4.72,0,0,0,4.67,4.9A4.59,4.59,0,0,0,115.06,263.8Z"/><path class="a" d="M121.55,269.83a1.35,1.35,0,0,1-.66-1.22,1.41,1.41,0,0,1,1.42-1.42,1.47,1.47,0,0,1,.75.21,8.13,8.13,0,0,0,4.41,1.47c1.51,0,2.38-.63,2.38-1.65v-.06c0-1.19-1.63-1.59-3.42-2.14-2.27-.64-4.79-1.57-4.79-4.5v-.06c0-2.9,2.41-4.67,5.45-4.67a10.57,10.57,0,0,1,4.82,1.25,1.5,1.5,0,0,1,.84,1.33,1.42,1.42,0,0,1-1.45,1.43,1.38,1.38,0,0,1-.7-.18,8.28,8.28,0,0,0-3.59-1c-1.37,0-2.15.64-2.15,1.51v.05c0,1.14,1.65,1.6,3.45,2.18,2.24.7,4.76,1.71,4.76,4.47v0c0,3.22-2.5,4.82-5.69,4.82A10.47,10.47,0,0,1,121.55,269.83Z"/><path class="a" d="M135.82,263.8v-.06a8.17,8.17,0,0,1,16.33-.06v.06a8,8,0,0,1-8.21,8A7.92,7.92,0,0,1,135.82,263.8Zm12.82,0v-.06a4.73,4.73,0,0,0-4.7-4.93,4.59,4.59,0,0,0-4.61,4.87v.06a4.72,4.72,0,0,0,4.67,4.9A4.59,4.59,0,0,0,148.64,263.8Z"/><path class="a" d="M156.5,259.07h-.61a1.46,1.46,0,0,1-1.48-1.45,1.49,1.49,0,0,1,1.48-1.48h.61V255a5.14,5.14,0,0,1,1.25-3.77A4.64,4.64,0,0,1,161.2,250a9.91,9.91,0,0,1,1.77.15,1.46,1.46,0,0,1-.26,2.9A5.67,5.67,0,0,0,162,253c-1.33,0-2,.72-2,2.32v.84h2.73a1.45,1.45,0,0,1,1.48,1.45,1.46,1.46,0,0,1-1.48,1.45H160v10.7a1.76,1.76,0,0,1-3.51,0Z"/><path class="a" d="M167.34,267.13v-8.06h-.58a1.51,1.51,0,0,1,0-3h.58v-2.61a1.76,1.76,0,0,1,3.51,0v2.61h2.76a1.51,1.51,0,1,1,0,3h-2.76v7.51a1.68,1.68,0,0,0,1.89,1.92,8,8,0,0,0,.87-.09,1.48,1.48,0,0,1,1.48,1.45,1.51,1.51,0,0,1-.93,1.36,6.77,6.77,0,0,1-2.41.41C169.17,271.63,167.34,270.5,167.34,267.13Z"/><path class="a" d="M187.64,269.57V252.86a1.78,1.78,0,0,1,1.8-1.8h11.81a1.61,1.61,0,0,1,1.59,1.6,1.59,1.59,0,0,1-1.59,1.6h-10v5.27h8.73a1.62,1.62,0,0,1,1.6,1.63,1.59,1.59,0,0,1-1.6,1.57h-8.73v5.45h10.18a1.6,1.6,0,1,1,0,3.19H189.44A1.77,1.77,0,0,1,187.64,269.57Z"/><path class="a" d="M221.43,269.77a1.76,1.76,0,0,1-3.51,0v-.95a6.13,6.13,0,0,1-5.22,2.87c-3.6,0-7.11-2.87-7.11-7.95v-.06c0-5.07,3.46-8,7.11-8a6.27,6.27,0,0,1,5.22,2.7v-6.64a1.76,1.76,0,0,1,3.51,0Zm-12.3-6.09v.06c0,3,2,4.9,4.41,4.9a4.61,4.61,0,0,0,4.44-4.9v-.06a4.59,4.59,0,0,0-4.44-4.9C211.13,258.78,209.13,260.64,209.13,263.68Z"/><path class="a" d="M226.73,274.71a1.46,1.46,0,0,1-1-1.4,1.48,1.48,0,0,1,1.48-1.45,1.37,1.37,0,0,1,.64.15,9.39,9.39,0,0,0,4.7,1.22c3.13,0,4.84-1.63,4.84-4.7v-1.19a6.43,6.43,0,0,1-5.4,2.81,6.88,6.88,0,0,1-7-7.16v-.06a6.91,6.91,0,0,1,7-7.2,6.59,6.59,0,0,1,5.37,2.62v-.73a1.76,1.76,0,0,1,3.51,0v10.59A7.86,7.86,0,0,1,239,274c-1.4,1.39-3.54,2.06-6.3,2.06A13.4,13.4,0,0,1,226.73,274.71ZM237.44,263v-.06a4.28,4.28,0,0,0-4.5-4.21,4.15,4.15,0,0,0-4.35,4.21V263a4.17,4.17,0,0,0,4.35,4.2A4.28,4.28,0,0,0,237.44,263Z"/><path class="a" d="M252.31,271.72a7.65,7.65,0,0,1-7.86-8v-.06c0-4.38,3.11-8,7.49-8,4.87,0,7.28,4,7.28,7.55a1.65,1.65,0,0,1-1.66,1.68H248a4.29,4.29,0,0,0,4.41,3.89,5.54,5.54,0,0,0,3.63-1.34,1.31,1.31,0,0,1,.9-.32,1.38,1.38,0,0,1,1.39,1.42,1.54,1.54,0,0,1-.46,1.08A7.93,7.93,0,0,1,252.31,271.72Zm3.49-9.08c-.24-2.26-1.57-4-3.89-4-2.15,0-3.66,1.65-4,4Z"/><path class="b" d="M98,84.49a125.08,125.08,0,0,0-35.4,34S66,76.66,98,52.21c12.75-9.72,30.19-17.86,53.63-17.86,8.81,0,27.29,1.53,43.92,11.79S218.92,65,226.42,77.57a72,72,0,0,1,7.51,19.13c3.08,12.6,3.46,27.68,3.46,27.68v19.85H118.47s-2.9,40,51.79,40c19,0,25.68-3,31.93-4.84,9.79-2.9,19.25-9.36,19.25-9.36l0,39.92s-22.38,13.78-56.2,13.78c-9.52,0-19.55-.8-29.23-3.94-8.46-2.74-26.17-10.14-38-27.48C93.82,186.12,89.27,178,87,170c-2.43-8.62-2.4-17-2.4-21.62,0-17.26,5.9-33.74,16.13-45.65a88,88,0,0,1,30-22.23A62.06,62.06,0,0,0,122,94.77a65,65,0,0,0-4.28,15.89h67.15s3.93-40.13-38-40.13C131,70.53,111.63,76,98,84.49Z"/></svg>