<svg id="Capa_1" data-name="Capa 1" xmlns="http://www.w3.org/2000/svg" viewBox="0 0 11.75 15.4"><defs><style>.cls-1{fill:#9e1c64;}</style></defs><title>secure</title><path class="cls-1" d="M11.42,6.72h-1V5.44A4.53,4.53,0,0,0,5.88,1,4.53,4.53,0,0,0,1.31,5.44V6.72h-1A.33.33,0,0,0,0,7v8a1.3,1.3,0,0,0,1.31,1.28h9.13a1.3,1.3,0,0,0,1.31-1.28V7A.33.33,0,0,0,11.42,6.72ZM2,5.44a3.92,3.92,0,0,1,7.83,0V6.72H9.14V5.44a3.27,3.27,0,0,0-6.53,0V6.72H2Zm6.53,0V6.72H3.26V5.44a2.62,2.62,0,0,1,5.23,0Zm2.61,9.62a.65.65,0,0,1-.66.64H1.31a.65.65,0,0,1-.66-.64V7.36H11.1Z" transform="translate(0 -0.95)"/><path class="cls-1" d="M5.1,11.6l-.2,1.82a.33.33,0,0,0,.08.25.32.32,0,0,0,.24.11H6.53a.32.32,0,0,0,.24-.11.33.33,0,0,0,.08-.25l-.2-1.82a1.26,1.26,0,0,0,.53-1,1.31,1.31,0,0,0-2.61,0A1.26,1.26,0,0,0,5.1,11.6Zm.77-1.67a.66.66,0,0,1,.66.64.64.64,0,0,1-.37.58.32.32,0,0,0-.19.32l.19,1.67H5.59l.19-1.67a.32.32,0,0,0-.19-.32.64.64,0,0,1-.37-.58A.65.65,0,0,1,5.87,9.93Z" transform="translate(0 -0.95)"/></svg>