<svg width="32" height="32" viewBox="0 0 32 32" fill="none" xmlns="http://www.w3.org/2000/svg">
<path d="M15.9997 0C7.16343 0 0 7.16364 0 15.9999C0 24.836 7.16343 32.0002 15.9997 32.0002C24.836 32.0002 32 24.836 32 15.9999C32 7.16342 24.836 0 15.9997 0ZM16.0485 23.5484V23.5482H15.9508H9.11631C9.11631 18.5502 13.5059 18.5513 14.48 17.2444L14.5915 16.6485C13.2229 15.9549 12.2568 14.2828 12.2568 12.3271C12.2568 9.75067 13.9328 7.66167 15.9997 7.66167C18.0666 7.66167 19.7426 9.75067 19.7426 12.3271C19.7426 14.2662 18.7937 15.9278 17.4434 16.6324L17.5703 17.3096C18.639 18.5532 22.8826 18.6342 22.8826 23.5484H16.0485Z" fill="#9E1C64"/>
</svg>
