<svg xmlns="http://www.w3.org/2000/svg" viewBox="0 0 300 300"><defs><style>.a,.b{fill:none;stroke-linecap:round;stroke-linejoin:round;stroke-width:5px;}.a{stroke:#5b6670;}.b{stroke:#9d1d64;}</style></defs><title>icon</title><path class="a" d="M222.74,144.1v-.22c-.82-9.79-4.82-17.68-11.9-23.47-12.5-10.21-29.57-9.83-29.41-9.83H118a54.49,54.49,0,0,0-24.5,5.63c-14.85,9-16.15,20.59-16.2,24l0,52.86A16.86,16.86,0,0,0,81,204.47a13.73,13.73,0,0,0,10.91,4.65H106V269l93.56.07v-.37a15.68,15.68,0,0,0,7.28,1.79,16,16,0,0,0,16-16.06Z"/><path class="b" d="M150,94.94a32,32,0,1,0-32-32A32.07,32.07,0,0,0,150,94.94Z"/><line class="a" x1="198.91" y1="144.09" x2="198.91" y2="266.5"/><path class="a" d="M100.54,209.12H141a16.52,16.52,0,0,0,16.52-16.52h0A16.52,16.52,0,0,0,141,176.08H134.7"/><line class="a" x1="118.03" y1="110.58" x2="140.96" y2="209.12"/><line class="a" x1="95.94" y1="115.06" x2="91.05" y2="207.32"/></svg>