<svg xmlns="http://www.w3.org/2000/svg" viewBox="0 0 300 300"><defs><style>.a,.b{fill:none;stroke-linecap:round;stroke-linejoin:round;stroke-width:5px;}.a{stroke:#5b6670;}.b{stroke:#9d1d64;}</style></defs><title>icon</title><path class="a" d="M150,94.94a32,32,0,1,0-32-32A32.07,32.07,0,0,0,150,94.94Z"/><path class="a" d="M78.39,117.6A25.24,25.24,0,1,0,53.17,92.37,25.26,25.26,0,0,0,78.39,117.6Z"/><path class="a" d="M221.69,117.6a25.24,25.24,0,1,0-25.23-25.23A25.26,25.26,0,0,0,221.69,117.6Z"/><path class="a" d="M204,270.13V131.45"/><path class="a" d="M96,131.46V270.13"/><path class="a" d="M271.08,270.13v-104a35.74,35.74,0,0,0-35.74-35.74H207.73a36.23,36.23,0,0,0-4.66.31,42.36,42.36,0,0,0-35.67-19.56H132.88a42.34,42.34,0,0,0-35.7,19.6,35.14,35.14,0,0,0-4.91-.35H64.66a35.74,35.74,0,0,0-35.74,35.74v104"/><path class="b" d="M150,213.3l-14.89-11.79,10.57-77.37h8.64l10.57,77.37Z"/></svg>