<svg xmlns="http://www.w3.org/2000/svg" viewBox="0 0 300 300"><defs><style>.a{fill:#5b6670;}.b{fill:#9d1d64;}</style></defs><title>MINI FLOTAS</title><path class="a" d="M121.15,151.62H17.07a2.08,2.08,0,0,1,0-4.16H121.15a2.08,2.08,0,1,1,0,4.16Z"/><path class="a" d="M121.15,152H17.07a2.47,2.47,0,1,1,0-4.94H121.15a2.47,2.47,0,1,1,0,4.94ZM17.07,147.85a1.7,1.7,0,0,0,0,3.39H121.15a1.7,1.7,0,1,0,0-3.39Z"/><path class="a" d="M114.1,66.53h-90c-5.32,0-9.64,5-9.64,11.06v113c0,6.1,4.32,11.07,9.64,11.07h90c5.31,0,9.64-5,9.64-11.07v-113C123.74,71.49,119.41,66.53,114.1,66.53ZM19.65,94.65h98.92v95.9c0,3.26-2,5.9-4.47,5.9h-90c-2.47,0-4.48-2.64-4.48-5.9Zm98.92-5.16H19.65V77.59c0-3.25,2-5.9,4.48-5.9h90c2.46,0,4.47,2.65,4.47,5.9Z"/><path class="a" d="M115.54,204.59a2.58,2.58,0,0,0-2.58,2.58c0,6.42,0,9.65-1.53,11.15s-4.83,1.5-11.41,1.5c-4.72,0-7.85,0-8.66-1-1.07-1.29-1.07-6.1-1.07-11.67a2.59,2.59,0,0,0-5.17,0C85.12,223.48,86.38,225,100,225c16.86,0,18.09-2.47,18.09-17.82A2.59,2.59,0,0,0,115.54,204.59Z"/><path class="a" d="M50.52,204.59a2.59,2.59,0,0,0-2.58,2.58c0,6.42,0,9.65-1.53,11.15s-4.83,1.5-11.41,1.5c-4.72,0-7.84,0-8.65-1-1.08-1.29-1.08-6.1-1.08-11.67a2.59,2.59,0,0,0-5.17,0C20.1,223.48,21.36,225,35,225c16.86,0,18.08-2.47,18.08-17.82A2.59,2.59,0,0,0,50.52,204.59Z"/><path class="a" d="M130.05,33H8.17a2.59,2.59,0,0,0-2.58,2.58v93.47a2.58,2.58,0,0,0,5.16,0V38.18H127.47v90.88a2.59,2.59,0,0,0,5.17,0V35.59A2.59,2.59,0,0,0,130.05,33Z"/><path class="b" d="M58.79,185.12h20.8a2.5,2.5,0,0,0,0-5H58.79a2.5,2.5,0,0,0,0,5Z"/><path class="b" d="M58.71,177.53h20.8a2.5,2.5,0,0,0,0-5H58.71a2.5,2.5,0,0,0,0,5Z"/><path class="b" d="M79.67,187.72H58.87a2.5,2.5,0,0,0,0,5h20.8a2.5,2.5,0,0,0,0-5Z"/><path class="b" d="M58.56,169.94H79.35a2.49,2.49,0,1,0,0-5H58.56a2.49,2.49,0,1,0,0,5Z"/><path class="b" d="M50,178.58H26.12a2.5,2.5,0,0,0-2.5,2.49v10.38a2.5,2.5,0,0,0,2.5,2.49H50a2.5,2.5,0,0,0,2.49-2.49V181.07A2.5,2.5,0,0,0,50,178.58Zm-2.5,5V189H28.61v-5.39Z"/><path class="b" d="M112.11,178.58H88.22a2.5,2.5,0,0,0-2.5,2.49v10.38a2.5,2.5,0,0,0,2.5,2.49h23.89a2.5,2.5,0,0,0,2.49-2.49V181.07A2.5,2.5,0,0,0,112.11,178.58Zm-2.5,5V189H90.71v-5.39Z"/><path class="b" d="M154.05,176.9a9.09,9.09,0,1,0,9.09,9.09A9.1,9.1,0,0,0,154.05,176.9Zm4.3,9.09a4.3,4.3,0,1,1-4.3-4.3A4.31,4.31,0,0,1,158.35,186Z"/><path class="b" d="M204.28,176.9a9.09,9.09,0,1,0,9.09,9.09A9.1,9.1,0,0,0,204.28,176.9Zm4.3,9.09a4.3,4.3,0,1,1-4.3-4.3A4.31,4.31,0,0,1,208.58,186Z"/><path class="b" d="M191.32,190.29H167a2.4,2.4,0,1,0,0,4.79h24.3a2.4,2.4,0,1,0,0-4.79Z"/><path class="b" d="M170.61,188.38h17.11a2.4,2.4,0,1,0,0-4.79H170.61a2.4,2.4,0,0,0,0,4.79Z"/><path class="a" d="M227.92,204.84c-17,1.79-24.44,2.9-48.51,2.91s-32-1.12-49-2.91a2.41,2.41,0,0,0-1.76.52,2.37,2.37,0,0,0-.88,1.62,2.4,2.4,0,0,0,2.14,2.63c17.07,1.8,25.07,2.91,49.18,2.93h.66c24.07,0,31.59-1.13,48.66-2.93a2.4,2.4,0,1,0-.5-4.77Z"/><path class="a" d="M154.16,212.65a2.39,2.39,0,0,0-2.4,2.39c0,1.79,0,4.24-.3,4.57-.65.47-4,.47-7.47.47h-.37c-1.91,0-4.53,0-4.88-.31-.43-.48-.43-3.91-.43-6.17a2.4,2.4,0,0,0-4.8,0c0,10.12,1,11.28,10.11,11.28H144c10.57,0,12.56-.3,12.56-9.84A2.39,2.39,0,0,0,154.16,212.65Z"/><path class="a" d="M222.43,211.2a2.41,2.41,0,0,0-2.4,2.4c0,2.26,0,5.69-.43,6.17-.36.31-3,.31-4.89.31h-.36c-3.51,0-6.83,0-7.46-.46-.31-.34-.31-2.79-.31-4.58a2.4,2.4,0,0,0-4.8,0c0,9.54,2,9.84,12.57,9.84h.36c9.08,0,10.12-1.16,10.12-11.28A2.41,2.41,0,0,0,222.43,211.2Z"/><path class="a" d="M135.39,154.52l5,4.12-.92,1.33a28.33,28.33,0,0,0-2.63,4.18c-4.34,8.52-4.34,24.85-4.34,36.78a2.39,2.39,0,0,0,2.15,2.38C150.25,205,157,206,179.06,206h.61c22,0,28.23-1,43.79-2.67a2.49,2.49,0,0,0,1.7-.71,2.38,2.38,0,0,0,.72-1.68c0-11.93,0-28.26-4.3-36.7A29.77,29.77,0,0,0,218.9,160c-.23-.32-.46-.66-.69-1l4.9-4.06a7.48,7.48,0,1,0-5.62-1.57l-1.85,1.53c-.22-.41-.44-.82-.63-1.24h0s0-.07,0-.11,0,0,0-.08l-9.07-25.21a2.39,2.39,0,0,0-2.25-1.58h-48.9a2.39,2.39,0,0,0-2.25,1.58l-9,25.15a.91.91,0,0,0-.07.14v0c-.27.57-.55,1.12-.85,1.66l-2.26-1.88a7.09,7.09,0,1,0-4.85,1.19Zm21-23.09h45.52l8.47,23.51c.77,2.75.67,4.9-.32,6.22a3.79,3.79,0,0,1-3,1.43c-5.1-.37-8.82-.88-12.43-1.38-6.14-.83-24.85-.83-31,0-3.6.49-7.32,1-12.24,1.36a3.9,3.9,0,0,1-3.17-1.42c-1-1.31-1.09-3.44-.33-6.15Zm-12.9,31a8.33,8.33,0,0,0,8.09,4.89h0c5.2-.38,9-.9,12.74-1.41,6-.81,23.7-.81,29.73,0,3.67.5,7.47,1,12.81,1.41h0a8.64,8.64,0,0,0,7-3.34,8.12,8.12,0,0,0,.91-1.56l.16.23a26.14,26.14,0,0,1,2.28,3.61c3.75,7.36,3.82,23.5,3.83,32.43-14.33,1.46-20.4,2.43-41.74,2.44s-27.83-1-42.1-2.43c0-8.93.07-25.08,3.86-32.52a27.59,27.59,0,0,1,2.24-3.52Zm78.62-12.28a2.67,2.67,0,1,1,2.66-2.66A2.67,2.67,0,0,1,222.13,150.2Zm-85.92-5.72a3.06,3.06,0,1,1-3.05,3.06A3.05,3.05,0,0,1,136.21,144.48Z"/><path class="a" d="M290.35,143.59h-6.17a4.06,4.06,0,0,0-4.06,4.06l-2.37,1.63c-1.55-5.53-7.51-9.62-14.49-9.62s-12.82,3.92-14.45,9.39l-2-1.31v-1.3a4.06,4.06,0,0,0-4.06-4.06h-6.17a4.06,4.06,0,0,0-4.06,4.06V149a4.07,4.07,0,0,0,4.06,4.07h6.17a4,4,0,0,0,2.66-1l3.15,2c.05.28.12.56.19.82a1.67,1.67,0,0,1-.69,1.83,16.83,16.83,0,0,0-7.5,14V196a16.82,16.82,0,0,0,12.9,16.39v3.53a9.82,9.82,0,0,0,19.63,0v-3.53A16.82,16.82,0,0,0,286,196V170.78a16.85,16.85,0,0,0-7.51-14,1.66,1.66,0,0,1-.68-1.83c.05-.17.08-.34.12-.51l2.94-1.91a4,4,0,0,0,3.34,1.77h6.17a4.06,4.06,0,0,0,4.06-4.06v-2.56A4.06,4.06,0,0,0,290.35,143.59ZM290,148v1.9h-5.51V148Zm-16.95,59.88V197a9.82,9.82,0,0,0-19.63,0v10.89A12.51,12.51,0,0,1,244.93,196V170.78a12.43,12.43,0,0,1,5.56-10.38,6.1,6.1,0,0,0,2.47-6.66,5.86,5.86,0,0,1-.22-1.62c0-4.45,4.71-8.07,10.52-8.07s10.5,3.62,10.5,8.07a6.41,6.41,0,0,1-.21,1.64A6,6,0,0,0,276,160.4h0a12.47,12.47,0,0,1,5.56,10.38V196A12.53,12.53,0,0,1,273.07,207.86ZM257.83,197a5.42,5.42,0,0,1,10.84,0v19a5.42,5.42,0,0,1-10.84,0Zm-15.43-50.2v1.91h-5.51v-1.91Z"/><path class="b" d="M270.75,154.23a7.5,7.5,0,1,0-7.5,7.51A7.51,7.51,0,0,0,270.75,154.23Zm-7.5,3.12a3.11,3.11,0,1,1,3.11-3.12A3.12,3.12,0,0,1,263.25,157.35Z"/><path class="b" d="M253.46,163.4a2.25,2.25,0,0,0-3.11,0,2.22,2.22,0,0,0,0,3.11l5,5a2.2,2.2,0,0,0,3.1,0,2.2,2.2,0,0,0,0-3.1Z"/><path class="b" d="M275.61,163.39a2.2,2.2,0,0,0-1.55-.64h0a2.17,2.17,0,0,0-1.54.64l-5,5a2.19,2.19,0,0,0-.65,1.56,2.15,2.15,0,0,0,.64,1.55,2.2,2.2,0,0,0,3.1,0l5-5A2.2,2.2,0,0,0,275.61,163.39Z"/><path class="a" d="M73.35,258.94a1.79,1.79,0,0,1,1.8-1.8h.38a1.88,1.88,0,0,1,1.65,1l6.16,9.64,6.19-9.67a1.8,1.8,0,0,1,1.63-.93h.38a1.79,1.79,0,0,1,1.8,1.8v17a1.77,1.77,0,0,1-1.8,1.77A1.8,1.8,0,0,1,89.76,276V263.76l-5,7.47a1.67,1.67,0,0,1-3,0l-4.94-7.41V276a1.74,1.74,0,0,1-1.77,1.74A1.71,1.71,0,0,1,73.35,276Z"/><path class="a" d="M98.1,258.13a2,2,0,0,1,4,0v.17a2,2,0,0,1-4,0Zm.26,5.72a1.73,1.73,0,0,1,1.74-1.77,1.75,1.75,0,0,1,1.77,1.77V276a1.76,1.76,0,0,1-3.51,0Z"/><path class="a" d="M106.46,263.85a1.74,1.74,0,0,1,1.74-1.77,1.76,1.76,0,0,1,1.78,1.77v.76a5.54,5.54,0,0,1,4.79-2.68c3.46,0,5.46,2.33,5.46,5.87V276a1.71,1.71,0,0,1-1.74,1.74,1.74,1.74,0,0,1-1.77-1.74v-7.12c0-2.39-1.19-3.75-3.29-3.75s-3.45,1.42-3.45,3.81V276a1.76,1.76,0,0,1-3.52,0Z"/><path class="a" d="M124.41,258.13a2,2,0,0,1,4,0v.17a2,2,0,0,1-4,0Zm.26,5.72a1.74,1.74,0,0,1,1.75-1.77,1.76,1.76,0,0,1,1.77,1.77V276a1.76,1.76,0,0,1-3.52,0Z"/><path class="a" d="M141.9,259.06a1.77,1.77,0,0,1,1.8-1.8h11.85a1.63,1.63,0,1,1,0,3.25H145.47v5.55h8.77a1.63,1.63,0,1,1,0,3.25h-8.77V276a1.79,1.79,0,0,1-3.57,0Z"/><path class="a" d="M160.75,258a1.72,1.72,0,0,1,1.74-1.74,1.75,1.75,0,0,1,1.77,1.74v18a1.76,1.76,0,0,1-3.51,0Z"/><path class="a" d="M168,270V270a8.18,8.18,0,0,1,16.36-.06V270a8,8,0,0,1-8.23,8A7.93,7.93,0,0,1,168,270Zm12.84,0V270a4.75,4.75,0,0,0-4.71-4.94,4.6,4.6,0,0,0-4.62,4.88V270a4.73,4.73,0,0,0,4.68,4.91A4.6,4.6,0,0,0,180.85,270Z"/><path class="a" d="M188.66,273.35v-8.07h-.58a1.52,1.52,0,0,1,0-3h.58v-2.61a1.76,1.76,0,0,1,3.52,0v2.61h2.76a1.52,1.52,0,1,1,0,3h-2.76v7.52a1.67,1.67,0,0,0,1.88,1.92,8.32,8.32,0,0,0,.88-.09,1.48,1.48,0,0,1,1.48,1.45,1.53,1.53,0,0,1-.93,1.37,7,7,0,0,1-2.41.41C190.49,277.86,188.66,276.72,188.66,273.35Z"/><path class="a" d="M198.86,273.18v-.06c0-3.31,2.58-4.94,6.33-4.94a12.73,12.73,0,0,1,4.12.64v-.38c0-2.18-1.33-3.34-3.8-3.34a9.06,9.06,0,0,0-3.4.61,1.91,1.91,0,0,1-.55.09,1.46,1.46,0,0,1-1.48-1.45A1.53,1.53,0,0,1,201,263a13.24,13.24,0,0,1,4.94-.9,6.9,6.9,0,0,1,5.09,1.71,6.39,6.39,0,0,1,1.65,4.74v7.55a1.67,1.67,0,0,1-1.71,1.69,1.58,1.58,0,0,1-1.71-1.48v-.58a6.25,6.25,0,0,1-5,2.23C201.41,277.91,198.86,276.26,198.86,273.18Zm10.51-1.11v-1a9.7,9.7,0,0,0-3.48-.61c-2.27,0-3.61,1-3.61,2.55V273c0,1.48,1.31,2.33,3,2.33C207.6,275.36,209.37,274,209.37,272.07Z"/><path class="a" d="M216.34,276.05a1.34,1.34,0,0,1-.67-1.22,1.41,1.41,0,0,1,1.43-1.42,1.57,1.57,0,0,1,.75.2,8.07,8.07,0,0,0,4.42,1.48c1.51,0,2.38-.63,2.38-1.65v-.06c0-1.19-1.63-1.6-3.43-2.15-2.26-.64-4.79-1.57-4.79-4.5v-.06c0-2.91,2.41-4.68,5.46-4.68a10.57,10.57,0,0,1,4.82,1.25,1.48,1.48,0,0,1,.84,1.34,1.46,1.46,0,0,1-2.14,1.25,8.38,8.38,0,0,0-3.61-1.05c-1.36,0-2.15.64-2.15,1.51v.06c0,1.13,1.66,1.6,3.46,2.18,2.24.7,4.77,1.71,4.77,4.47v.06c0,3.23-2.5,4.82-5.7,4.82A10.47,10.47,0,0,1,216.34,276.05Z"/></svg>