<svg xmlns="http://www.w3.org/2000/svg" viewBox="0 0 300 300"><defs><style>.a{fill:#5b6670;}.b{fill:#9d1d64;}.c{fill:none;stroke:#5b6670;stroke-linecap:round;stroke-linejoin:round;stroke-width:5px;}</style></defs><title>icon</title><path class="a" d="M242.14,269.08H57.86a2.37,2.37,0,0,1-2.37-2.37v-96a2.37,2.37,0,0,1,2.37-2.36H242.14a2.37,2.37,0,0,1,2.37,2.36v96A2.37,2.37,0,0,1,242.14,269.08ZM60.23,264.35H239.77V173.07H60.23Z"/><path class="a" d="M89.35,259.21A2.38,2.38,0,0,1,87,256.83v-75.5A2.39,2.39,0,0,1,89.35,179h6.8a2.38,2.38,0,0,1,0,4.76H91.73v73.12A2.38,2.38,0,0,1,89.35,259.21Z"/><path class="b" d="M108.53,259.21a2.37,2.37,0,0,1-2.38-2.38v-75.5a2.38,2.38,0,0,1,2.38-2.38h6.8a2.38,2.38,0,0,1,0,4.76h-4.42v73.12A2.38,2.38,0,0,1,108.53,259.21Z"/><path class="b" d="M70.29,259.21a2.38,2.38,0,0,1-2.38-2.38v-75.5A2.39,2.39,0,0,1,70.29,179h6.8a2.38,2.38,0,0,1,0,4.76H72.67v73.12A2.38,2.38,0,0,1,70.29,259.21Z"/><path class="b" d="M222.91,259.21a2.38,2.38,0,0,1-2.38-2.38v-75.5a2.39,2.39,0,0,1,2.38-2.38h6.8a2.38,2.38,0,0,1,0,4.76h-4.42v73.12A2.37,2.37,0,0,1,222.91,259.21Z"/><path class="a" d="M126.8,259.21a2.38,2.38,0,0,1-2.38-2.38v-75.5A2.39,2.39,0,0,1,126.8,179h6.8a2.38,2.38,0,0,1,0,4.76h-4.42v73.12A2.38,2.38,0,0,1,126.8,259.21Z"/><path class="b" d="M146,259.21a2.37,2.37,0,0,1-2.37-2.38v-75.5A2.38,2.38,0,0,1,146,179h6.8a2.38,2.38,0,0,1,0,4.76h-4.42v73.12A2.37,2.37,0,0,1,146,259.21Z"/><path class="a" d="M165.15,259.21a2.38,2.38,0,0,1-2.38-2.38v-75.5a2.39,2.39,0,0,1,2.38-2.38H172a2.38,2.38,0,0,1,0,4.76h-4.42v73.12A2.38,2.38,0,0,1,165.15,259.21Z"/><path class="b" d="M183.42,259.21a2.38,2.38,0,0,1-2.38-2.38v-75.5a2.39,2.39,0,0,1,2.38-2.38h6.8a2.38,2.38,0,0,1,0,4.76H185.8v73.12A2.38,2.38,0,0,1,183.42,259.21Z"/><path class="a" d="M202.6,259.21a2.37,2.37,0,0,1-2.38-2.38v-75.5A2.38,2.38,0,0,1,202.6,179h6.79a2.38,2.38,0,1,1,0,4.76H205v73.12A2.38,2.38,0,0,1,202.6,259.21Z"/><polyline class="c" points="242.01 170.16 150.5 89.8 57.99 170.16"/><path class="b" d="M150,91.85a6.18,6.18,0,0,1-6.14-5.64,6,6,0,0,1,1.56-4.56,6.37,6.37,0,0,1,2.05-1.53v-9.3a2.38,2.38,0,0,1,4.76,0V81.9A2.38,2.38,0,0,1,150,84.27a1.74,1.74,0,0,0-1.09.55,1.33,1.33,0,0,0-.36,1,1.42,1.42,0,0,0,1.53,1.29,1.42,1.42,0,0,0,1-.5,1.44,1.44,0,0,0,.33-1,2.38,2.38,0,1,1,4.74-.41,6.17,6.17,0,0,1-5.62,6.67A4.89,4.89,0,0,1,150,91.85Z"/><path class="a" d="M150,73.18a2.37,2.37,0,0,1-2.15-1.37l-11.64-24.9a2.35,2.35,0,0,1,.17-2.32L144.15,33a2.39,2.39,0,0,1,2-1.06h7.74a2.38,2.38,0,0,1,2,1.06l7.74,11.61a2.37,2.37,0,0,1,.18,2.32l-11.58,24.9A2.37,2.37,0,0,1,150,73.18Zm-8.92-27.07L150,65.18l8.86-19.07-6.29-9.43h-5.2Z"/></svg>