<svg xmlns="http://www.w3.org/2000/svg" viewBox="0 0 300 300"><defs><style>.a{fill:#5b6670;}.b{fill:#9d1d64;}</style></defs><title>icon</title><path class="a" d="M222.42,260.94H78.22a12.57,12.57,0,0,1-12.56-12.55V76A12.56,12.56,0,0,1,78.22,63.48h144.2A12.56,12.56,0,0,1,235,76V248.39A12.56,12.56,0,0,1,222.42,260.94ZM78.22,68.53a7.5,7.5,0,0,0-7.5,7.5V248.39a7.5,7.5,0,0,0,7.5,7.49h144.2a7.5,7.5,0,0,0,7.49-7.49V76a7.5,7.5,0,0,0-7.49-7.5Z"/><path class="a" d="M183.14,53.89H116.86a9.94,9.94,0,1,1,0-19.87h66.28a9.94,9.94,0,1,1,0,19.87ZM116.86,39.07a4.88,4.88,0,1,0,0,9.76h66.28a4.88,4.88,0,1,0,0-9.76Z"/><path class="a" d="M139.56,80.07h-4.35a2.52,2.52,0,0,1-2.52-2.52v-25a2.53,2.53,0,1,1,5.05,0V75h1.82a2.53,2.53,0,1,1,0,5Z"/><path class="a" d="M164.42,80.07h-4.34a2.53,2.53,0,1,1,0-5h1.81V52.56a2.53,2.53,0,0,1,5.06,0v25A2.52,2.52,0,0,1,164.42,80.07Z"/><path class="a" d="M118.68,271.08H86c-2.63,0-4.7-2.46-4.7-5.61V251.36c0-3.15,2.07-5.62,4.7-5.62h32.67c2.63,0,4.7,2.47,4.7,5.62v14.11C123.38,268.62,121.31,271.08,118.68,271.08ZM86.46,266h31.77a1.49,1.49,0,0,0,.09-.55V251.36a1.55,1.55,0,0,0-.09-.56H86.46a1.55,1.55,0,0,0-.09.56v14.11A1.49,1.49,0,0,0,86.46,266Z"/><path class="a" d="M214.62,271.08H182c-2.64,0-4.7-2.46-4.7-5.61V251.36c0-3.15,2.06-5.62,4.7-5.62h32.66c2.64,0,4.7,2.47,4.7,5.62v14.11C219.32,268.62,217.26,271.08,214.62,271.08ZM182.41,266h31.76a1.49,1.49,0,0,0,.09-.55V251.36a1.55,1.55,0,0,0-.09-.56H182.41a1.55,1.55,0,0,0-.09.56v14.11A1.49,1.49,0,0,0,182.41,266Z"/><path class="b" d="M188.88,234.92H110.76a8.22,8.22,0,0,1-8.21-8.21V110.57a8.22,8.22,0,0,1,8.21-8.21h78.12a8.21,8.21,0,0,1,8.2,8.21V226.71A8.22,8.22,0,0,1,188.88,234.92Zm-78.12-127.5a3.15,3.15,0,0,0-3.15,3.15V226.71a3.15,3.15,0,0,0,3.15,3.15h78.12a3.16,3.16,0,0,0,3.15-3.15V110.57a3.16,3.16,0,0,0-3.15-3.15Z"/><path class="a" d="M190.76,90.64H108.88a2.53,2.53,0,0,1,0-5.06h81.88a2.53,2.53,0,0,1,0,5.06Z"/><path class="b" d="M187,124.78H112.62a2.53,2.53,0,0,1,0-5.06H187a2.53,2.53,0,0,1,0,5.06Z"/><path class="a" d="M186.55,96.69A2.53,2.53,0,0,1,184,94.16v-6a2.53,2.53,0,1,1,5.06,0v6A2.53,2.53,0,0,1,186.55,96.69Z"/></svg>